<?xml version="1.0" encoding="utf-8"?>
<!-- Generator: Adobe Illustrator 21.1.0, SVG Export Plug-In . SVG Version: 6.00 Build 0)  -->
<svg version="1.1" id="graphic" xmlns="http://www.w3.org/2000/svg" xmlns:xlink="http://www.w3.org/1999/xlink" x="0px" y="0px"
	 viewBox="0 0 523 132" style="enable-background:new 0 0 523 132;" xml:space="preserve">
<style type="text/css">
	.st0{fill:#244A7A;}
	.st1{fill:#9CC331;}
	.st2{opacity:0.5;}
	.st3{fill:url(#SVGID_1_);}
	.st4{fill:url(#SVGID_2_);}
	.st5{fill:url(#SVGID_3_);}
	.st6{opacity:0.5;fill:url(#SVGID_4_);}
</style>
<g id="wordmark">
	<g>
		<path class="st0" d="M195.2,62.4v-4.6h3.1V41h-5.1v3.8h-4.3l0.2-8.6h24.3l0.2,8.6h-4.3V41h-5.1v16.8h3.1v4.6H195.2z"/>
		<path class="st0" d="M222.1,46.6h0.1c0,0,0.9-2.2,5.2-2.2c4.6,0,6.6,2.8,6.6,6.8v6.6h2.4v4.6h-8V52.2c0-1.9-0.9-3-3.1-3
			c-2.1,0-2.8,1.3-3,1.7v6.9h2.1v4.6h-10v-4.6h2.3V38.6h-2.3V34h7.9v10.3L222.1,46.6z"/>
		<path class="st0" d="M254,54.6h-11.4c0.4,2.4,2.1,3.5,4.7,3.5c3.5,0,5-1.9,5-1.9l1.9,4.2c0,0-2.4,2.2-7.9,2.2
			c-5.6,0-9.4-3-9.4-9.2s3.7-9.1,9.2-9.1c5.9,0,8.1,4.6,8.1,7.8C254.3,53.8,254,54.6,254,54.6z M242.6,51.6h6.6c0-2-1.3-3.1-2.9-3.1
			C244.1,48.5,242.9,49.8,242.6,51.6z"/>
		<path class="st0" d="M273.3,62.4l-8.8-21.5h-2.8v-4.6h12.2v4.6H271l4.6,12.5c0.2,0.5,0.5,1.7,0.5,1.7h0.6c0,0,0.3-1.2,0.5-1.7
			l4.6-12.4h-2.9v-4.6h11.9v4.6H288l-8.9,21.5H273.3z"/>
		<path class="st0" d="M300.4,59.5c0,0-0.9,3.1-6,3.1c-3.8,0-6.1-2.1-6.1-5.2c0-3.2,2.8-5.1,8.3-5.1h3.2v-1.3c0-1.6-0.9-2.5-3-2.5
			s-3,0.9-3,1.9v0.3h-4.9v-1.4c0-1.9,1.8-5.1,8.1-5.1c4.8,0,8.3,2,8.3,7v6.4h1.9v4.6h-6.1l-0.6-2.8H300.4z M299.7,55.1h-2.5
			c-2.1,0-3.3,0.5-3.3,1.7c0,1,1,1.8,2.4,1.8c1.9,0,3-1.1,3.5-1.7V55.1z"/>
		<path class="st0" d="M316.1,57.8h2.1v4.6h-10v-4.6h2.3V38.6h-2.3V34h8V57.8z"/>
		<path class="st0" d="M332.9,59.3c0,0-1,3.3-5.8,3.3c-4.5,0-6.6-2.8-6.6-6.8v-6.6h-2.3v-4.6h8v10.1c0,2.1,0.8,3.3,3,3.3
			c2,0,2.8-1.3,3-1.9v-7h-2.1v-4.6h7.7v13.1h2.4v4.6h-6.5l-0.6-3.1H332.9z"/>
		<path class="st0" d="M358,54.6h-11.4c0.4,2.4,2.1,3.5,4.7,3.5c3.5,0,5-1.9,5-1.9l1.9,4.2c0,0-2.4,2.2-7.9,2.2
			c-5.6,0-9.4-3-9.4-9.2s3.7-9.1,9.2-9.1c5.9,0,8.1,4.6,8.1,7.8C358.3,53.8,358,54.6,358,54.6z M346.6,51.6h6.6c0-2-1.3-3.1-2.9-3.1
			C348.1,48.5,346.9,49.8,346.6,51.6z"/>
		<path class="st0" d="M376,62.6c-5.8,0-9.4-3-9.4-9.2s3.6-9.1,9.4-9.1s9.4,2.9,9.4,9.1S381.9,62.6,376,62.6z M379.8,53.5
			c0-3-1.6-4.6-3.8-4.6c-2.2,0-3.8,1.6-3.8,4.6s1.5,4.6,3.8,4.6C378.3,58.1,379.8,56.5,379.8,53.5z"/>
		<path class="st0" d="M386.6,62.4v-4.6h2.4v-8.9h-2.4v-4.3h2.4v-3c0-5.2,2.5-7.9,7.6-7.9c2.3,0,4,0.8,4,0.8v4.7
			c0,0-0.8-0.5-2.8-0.5c-2.2,0-3.1,1.2-3.1,3v3h5.8v4.3h-5.8v9.2h3.9v4.3H386.6z"/>
		<path class="st0" d="M424.7,62.4v-4.6h3.1v-5.9h-10.5v5.9h3.1v4.6h-11.9v-4.6h3.1V40.9h-3.1v-4.6h11.9v4.6h-3.1v6.7h10.5v-6.7
			h-3.1v-4.6h12v4.6h-3.1v16.9h3.1v4.6H424.7z"/>
		<path class="st0" d="M454.8,54.6h-11.4c0.4,2.4,2.1,3.5,4.7,3.5c3.5,0,5-1.9,5-1.9l1.9,4.2c0,0-2.4,2.2-7.9,2.2
			c-5.6,0-9.4-3-9.4-9.2s3.7-9.1,9.2-9.1c5.9,0,8.1,4.6,8.1,7.8C455.1,53.8,454.8,54.6,454.8,54.6z M443.4,51.6h6.6
			c0-2-1.3-3.1-2.9-3.1C444.9,48.5,443.7,49.8,443.4,51.6z"/>
		<path class="st0" d="M468.3,59.5c0,0-0.9,3.1-6,3.1c-3.8,0-6.1-2.1-6.1-5.2c0-3.2,2.8-5.1,8.3-5.1h3.2v-1.3c0-1.6-0.9-2.5-3-2.5
			s-3,0.9-3,1.9v0.3h-4.9v-1.4c0-1.9,1.8-5.1,8.1-5.1c4.8,0,8.3,2,8.3,7v6.4h1.9v4.6H469l-0.6-2.8H468.3z M467.5,55.1H465
			c-2.1,0-3.3,0.5-3.3,1.7c0,1,1,1.8,2.4,1.8c1.9,0,3-1.1,3.5-1.7V55.1z"/>
		<path class="st0" d="M484,57.8h2.1v4.6h-10v-4.6h2.3V38.6H476V34h8V57.8z"/>
		<path class="st0" d="M494,39.5v5.1h5.8v4.3H494v5.9c0,1.7,0.8,2.9,2.7,2.9c2.3,0,3.3-0.5,3.3-0.5v4.7c0,0-1.9,0.8-4.6,0.8
			c-4.8,0-7.1-2.6-7.1-7.5v-6.2H486v-4.3h2.3l0.9-5.1H494z"/>
		<path class="st0" d="M508.6,46.6h0.1c0,0,0.9-2.2,5.2-2.2c4.6,0,6.6,2.8,6.6,6.8v6.6h2.4v4.6h-8V52.2c0-1.9-0.9-3-3.1-3
			c-2.1,0-2.8,1.3-3,1.7v6.9h2.1v4.6h-10v-4.6h2.3V38.6h-2.3V34h7.9v10.3L508.6,46.6z"/>
	</g>
	<g>
		<g>
			<path class="st1" d="M189.4,93v-3.4h2.3V77.2h-2.3v-3.4h8.8v3.4H196v12.5h2.3V93H189.4z"/>
			<path class="st1" d="M208.7,82.2L208.7,82.2c0.1,0,0.9-2.4,4.4-2.4c2.2,0,3.6,0.9,4.3,2.4c0.1-0.2,0.9-2.4,4.3-2.4
				c3.3,0,4.8,2.1,4.8,5v4.9h1.7V93h-5.9v-7.5c0-1.6-0.6-2.5-2.2-2.5c-1.4,0-2,0.9-2.2,1.3c0,0.1,0,0.2,0,0.3v4.9h1.7V93h-5.9v-7.5
				c0-1.6-0.6-2.5-2.3-2.5c-1.5,0-2,1-2.2,1.4v5.2h1.5V93h-7.4v-3.4h1.7v-6.3h-1.7V80h4.8L208.7,82.2z"/>
			<path class="st1" d="M234,83.3h-1.7V80h4.8l0.5,2.1h0.1c0,0,1-2.3,4.1-2.3c3.2,0,5.7,1.9,5.7,6.7c0,4.6-2.5,6.7-5.8,6.7
				c-2.7,0-3.6-1.5-3.6-1.5h-0.1c0,0,0.2,1.3,0.2,1.3v4.6h2.7v3.1h-8.6v-3.4h1.7V83.3z M238.1,84.1v5c0.4,0.4,1,0.8,2.2,0.8
				c1.8,0,3-1.2,3-3.4c0-2.2-1-3.4-3.1-3.4C239.1,83.1,238.4,83.7,238.1,84.1z"/>
			<path class="st1" d="M263.7,83.8c-0.1,0-0.6-0.2-1.5-0.2c-2.6,0-3.6,1.8-3.9,2.2v3.7h2.4V93h-8.2v-3.4h1.7v-6.3h-1.7V80h4.8
				l0.5,3.3h0.1c0,0,0.8-3.5,4.5-3.5c0.7,0,1.3,0.1,1.4,0.1V83.8z"/>
			<path class="st1" d="M275,93.2c-4.3,0-6.9-2.2-6.9-6.7c0-4.6,2.7-6.7,6.9-6.7s6.9,2.2,6.9,6.7C282,91,279.4,93.2,275,93.2z
				 M277.9,86.5c0-2.2-1.2-3.4-2.8-3.4c-1.7,0-2.8,1.2-2.8,3.4s1.1,3.4,2.8,3.4S277.9,88.7,277.9,86.5z"/>
			<path class="st1" d="M291.7,93l-3.6-9.7h-1.8V80h7.3v3.4h-1.2l2.1,6.1h0.3l2.1-6.1h-1.3V80h7.3v3.4h-1.8l-3.6,9.7H291.7z"/>
			<path class="st1" d="M313.4,89.6h1.5V93h-7.4v-3.4h1.7v-6.3h-1.7V80h5.9V89.6z M311.2,78c-1.5,0-2.8-1.3-2.8-2.8s1.3-2.8,2.8-2.8
				c1.5,0,2.8,1.3,2.8,2.8S312.7,78,311.2,78z"/>
			<path class="st1" d="M325.2,82.2L325.2,82.2c0.1,0,0.9-2.4,4.4-2.4c3.4,0,4.8,2.1,4.8,5v4.9h1.7V93h-5.9v-7.5
				c0-1.6-0.6-2.5-2.3-2.5c-1.5,0-2,1-2.2,1.3v5.2h1.5V93H320v-3.4h1.7v-6.3H320V80h4.8L325.2,82.2z"/>
			<path class="st1" d="M350.1,92.8c0-0.5,0-1.1,0-1.1h-0.1c-0.1,0.1-1,1.5-3.7,1.5c-3.2,0-5.7-2.2-5.7-6.7c0-4.8,2.4-6.7,5.7-6.7
				c3.1,0,4.1,2.3,4.1,2.3h0.1l0.5-2.1h4.8v3.4h-1.7v10.4c0,4.9-3.4,7.2-7.4,7.2c-4,0-6-2.2-6-2.2l1.7-2.9c0,0,1.1,1.7,4.1,1.7
				c2.4,0,3.7-1.2,3.7-3.7V92.8z M349.9,89.1v-5c-0.3-0.4-1-1-2.2-1c-2,0-3.1,1.3-3.1,3.4c0,2.2,1.2,3.4,3,3.4
				C348.9,89.9,349.6,89.5,349.9,89.1z"/>
			<path class="st1" d="M378.7,93.2c-5.5,0-8.9-3.1-8.9-9.7c0-6.7,3.4-9.9,8.9-9.9c5.5,0,8.9,3.2,8.9,9.9
				C387.6,90.1,384.2,93.2,378.7,93.2z M378.7,89.6c2.6,0,4.6-1.5,4.6-6.2c0-4.7-2-6.3-4.6-6.3c-2.6,0-4.6,1.6-4.6,6.3
				C374.1,88.2,376.1,89.6,378.7,89.6z"/>
			<path class="st1" d="M403.2,90.8c0,0-0.8,2.5-4.3,2.5c-3.3,0-4.8-2.1-4.8-5v-4.9h-1.7V80h5.9v7.5c0,1.6,0.6,2.5,2.2,2.5
				c1.5,0,2-1,2.2-1.4v-5.2h-1.5V80h5.7v9.7h1.7V93h-4.8l-0.5-2.3H403.2z"/>
			<path class="st1" d="M418.3,76.2V80h4.3v3.2h-4.3v4.3c0,1.3,0.6,2.2,2,2.2c1.7,0,2.4-0.4,2.4-0.4v3.5c0,0-1.4,0.6-3.4,0.6
				c-3.6,0-5.2-1.9-5.2-5.5v-4.6h-1.7V80h1.7l0.6-3.8H418.3z"/>
			<path class="st1" d="M431.5,86.5c0,2.2,1.3,3.4,3.4,3.4c2.7,0,3.8-1.4,3.8-1.4l1.4,3.1c0,0-1.7,1.6-5.7,1.6
				c-4.4,0-7.1-2.2-7.1-6.7c0-4.6,2.6-6.7,6.9-6.7c4.4,0,5.7,2.6,5.7,4.7v1.1h-3.6v-0.4c0-1.3-0.6-2-2.2-2
				C432.3,83.1,431.5,84,431.5,86.5z"/>
			<path class="st1" d="M451.7,93.2c-4.3,0-6.9-2.2-6.9-6.7c0-4.6,2.7-6.7,6.9-6.7s6.9,2.2,6.9,6.7C458.7,91,456,93.2,451.7,93.2z
				 M454.6,86.5c0-2.2-1.2-3.4-2.8-3.4c-1.7,0-2.8,1.2-2.8,3.4s1.1,3.4,2.8,3.4S454.6,88.7,454.6,86.5z"/>
			<path class="st1" d="M468.8,82.2L468.8,82.2c0.1,0,0.9-2.4,4.4-2.4c2.2,0,3.6,0.9,4.3,2.4c0.1-0.2,0.9-2.4,4.3-2.4
				c3.3,0,4.8,2.1,4.8,5v4.9h1.7V93h-5.9v-7.5c0-1.6-0.6-2.5-2.2-2.5c-1.4,0-2,0.9-2.2,1.3c0,0.1,0,0.2,0,0.3v4.9h1.7V93h-5.9v-7.5
				c0-1.6-0.6-2.5-2.3-2.5c-1.5,0-2,1-2.2,1.4v5.2h1.5V93h-7.4v-3.4h1.7v-6.3h-1.7V80h4.8L468.8,82.2z"/>
			<path class="st1" d="M505.3,87.3h-8.4c0.3,1.8,1.5,2.6,3.5,2.6c2.6,0,3.7-1.4,3.7-1.4l1.4,3.1c0,0-1.8,1.6-5.8,1.6
				c-4.1,0-6.9-2.2-6.9-6.7c0-4.6,2.7-6.7,6.8-6.7c4.4,0,6,3.4,6,5.7C505.5,86.7,505.3,87.3,505.3,87.3z M496.9,85h4.9
				c0-1.5-1-2.3-2.2-2.3C498,82.8,497.1,83.8,496.9,85z"/>
			<path class="st1" d="M514.2,88.7v0.2c0,0.9,0.7,1.5,2.2,1.5c1.7,0,2-0.6,2-1.3c0-0.7-1.3-0.9-2.8-1.1c-2.2-0.4-5-0.9-5-4.2
				c0-2,1.7-4.1,5.7-4.1c4.5,0,5.9,1.8,5.9,3.8v1h-3.8v-0.4c0-1-0.6-1.5-1.9-1.5c-1,0-1.8,0.4-1.8,1.3c0,1.1,1.7,1.2,3.4,1.5
				c2.5,0.4,4.4,1.3,4.4,3.9c0,2.2-1.7,3.9-6,3.9c-4.6,0-6-1.8-6-3.6v-0.9H514.2z"/>
		</g>
	</g>
</g>
<g id="logomark">
	<g>
		<path class="st1" d="M50.7,51.9c-1.6,2.6-6.4,3-10.7,1c-4.3-2-6.5-5.8-4.9-8.4c1.6-2.6,6.4-3,10.7-1
			C50.2,45.6,52.4,49.4,50.7,51.9z M95,131.6c5.6-39.3-14.3-62.6-26.7-74.8c-0.4-0.4-0.9-0.9-1.3-1.4c0,0,0,0,0,0
			c-0.3-0.3-0.5-0.6-0.8-1c-7.8-10.2-3.7-23.6-1.3-27.7c0.1-0.2,0.2-0.4,0.3-0.6c0,0-8.4,7.5-8.8,20.6c0,0,0.7,7.1-5.7,9.7
			c-8,3.3-32.2,3.2-50.6,15C0.1,71.5,84.9,40.1,95,131.6z"/>
		<g class="st2">
			<linearGradient id="SVGID_1_" gradientUnits="userSpaceOnUse" x1="90.7291" y1="131.3203" x2="26.3857" y2="40.0317">
				<stop  offset="0.4432" style="stop-color:#FFFFFF;stop-opacity:0"/>
				<stop  offset="0.6023" style="stop-color:#FFFFFF"/>
				<stop  offset="0.7614" style="stop-color:#FFFFFF;stop-opacity:0"/>
			</linearGradient>
			<path class="st3" d="M50.7,51.9c-1.6,2.6-6.4,3-10.7,1c-4.3-2-6.5-5.8-4.9-8.4c1.6-2.6,6.4-3,10.7-1
				C50.2,45.6,52.4,49.4,50.7,51.9z M95,131.6c5.6-39.3-14.3-62.6-26.7-74.8c-0.4-0.4-0.9-0.9-1.3-1.4c0,0,0,0,0,0
				c-0.3-0.3-0.5-0.6-0.8-1c-7.8-10.2-3.7-23.6-1.3-27.7c0.1-0.2,0.2-0.4,0.3-0.6c0,0-8.4,7.5-8.8,20.6c0,0,0.7,7.1-5.7,9.7
				c-8,3.3-32.2,3.2-50.6,15C0.1,71.5,84.9,40.1,95,131.6z"/>
		</g>
	</g>
	<g>
		<path class="st0" d="M100.2,6.3c2.6-4.5,7.6-7.1,11.1-5.6c3.5,1.4,4.2,6.3,1.5,10.8c-2.6,4.5-7.6,7.1-11.1,5.6
			C98.2,15.7,97.5,10.9,100.2,6.3z M165.1,4.5c-26.5,0.2-46.3,15.1-59.9,16.9c-8.2,1.1-12.7-5.6-12.7-5.6C81.1,3,68.7,1.9,68.7,1.9
			c0.2,0.1,0.4,0.2,0.7,0.3c4.4,2,16.4,10.5,20.2,23.9c2.1,7.4,0.3,22.9,1,32.1c1.7,21.1,7.8,46.9,18.7,66
			C74.9,25.8,165.1,4.5,165.1,4.5z"/>
		<g class="st2">
			<linearGradient id="SVGID_2_" gradientUnits="userSpaceOnUse" x1="107.5527" y1="123.5057" x2="117.3087" y2="-2.1613">
				<stop  offset="0.428" style="stop-color:#FFFFFF;stop-opacity:0"/>
				<stop  offset="0.6629" style="stop-color:#FFFFFF"/>
				<stop  offset="0.8636" style="stop-color:#FFFFFF;stop-opacity:0"/>
			</linearGradient>
			<path class="st4" d="M100.2,6.3c2.6-4.5,7.6-7.1,11.1-5.6c3.5,1.4,4.2,6.3,1.5,10.8c-2.6,4.5-7.6,7.1-11.1,5.6
				C98.2,15.7,97.5,10.9,100.2,6.3z M165.1,4.5c-26.5,0.2-46.3,15.1-59.9,16.9c-8.2,1.1-12.7-5.6-12.7-5.6C81.1,3,68.7,1.9,68.7,1.9
				c0.2,0.1,0.4,0.2,0.7,0.3c4.4,2,16.4,10.5,20.2,23.9c2.1,7.4,0.3,22.9,1,32.1c1.7,21.1,7.8,46.9,18.7,66
				C74.9,25.8,165.1,4.5,165.1,4.5z"/>
		</g>
	</g>
	<g>
		<path class="st1" d="M141,47.7c3.2-2.5,7.3-2.9,9.1-1.1c1.8,1.9,0.7,5.4-2.5,7.8c-3.2,2.5-7.3,2.9-9.1,1.1
			C136.7,53.7,137.8,50.2,141,47.7z M184.3,62.9c-17.5-6.6-37.7-2.2-44.9-3.5c-5.8-1.1-6.5-7.1-6.5-7.1
			c-2.7-10.8-11.1-15.6-11.1-15.6c0.1,0.1,0.2,0.3,0.3,0.4c2.7,3,8.6,13.5,4,23.4c-0.2,0.3-0.3,0.6-0.5,1c0,0,0,0,0,0
			c-0.3,0.5-0.5,0.9-0.8,1.4c-8.1,12.4-20.5,35.4-8.7,67.1C107.8,51.8,184.3,62.9,184.3,62.9z"/>
		<g class="st2">
			<linearGradient id="SVGID_3_" gradientUnits="userSpaceOnUse" x1="107.1028" y1="126.2364" x2="158.2058" y2="41.2196">
				<stop  offset="0.4432" style="stop-color:#FFFFFF;stop-opacity:0"/>
				<stop  offset="0.6023" style="stop-color:#FFFFFF"/>
				<stop  offset="0.7614" style="stop-color:#FFFFFF;stop-opacity:0"/>
			</linearGradient>
			<path class="st5" d="M141,47.7c3.2-2.5,7.3-2.9,9.1-1.1c1.8,1.9,0.7,5.4-2.5,7.8c-3.2,2.5-7.3,2.9-9.1,1.1
				C136.7,53.7,137.8,50.2,141,47.7z M184.3,62.9c-17.5-6.6-37.7-2.2-44.9-3.5c-5.8-1.1-6.5-7.1-6.5-7.1
				c-2.7-10.8-11.1-15.6-11.1-15.6c0.1,0.1,0.2,0.3,0.3,0.4c2.7,3,8.6,13.5,4,23.4c-0.2,0.3-0.3,0.6-0.5,1c0,0,0,0,0,0
				c-0.3,0.5-0.5,0.9-0.8,1.4c-8.1,12.4-20.5,35.4-8.7,67.1C107.8,51.8,184.3,62.9,184.3,62.9z"/>
		</g>
	</g>
	<g>
		<path class="st0" d="M137.5,73.5c1.5,0.6,3.3,1,4.5,1.6c4.2,1.6,6.3,3.7,6.3,5.6c0,6.1-23.8,11.2-53.1,11.3
			c-29.3,0.1-53-4.8-52.9-10.9c0-2.4,4.1-5,10.6-6.9c1.8-0.6,3.5-1,5.7-1.6C43.7,75.5,34.1,79.9,34,84.8C34,93,61.4,99.6,95.2,99.5
			c33.8-0.1,61.3-6.9,61.4-15.2C156.6,80,149.3,76.2,137.5,73.5z"/>
		<linearGradient id="SVGID_4_" gradientUnits="userSpaceOnUse" x1="34.0225" y1="86.1039" x2="156.5739" y2="86.1039">
			<stop  offset="0.4432" style="stop-color:#FFFFFF;stop-opacity:0"/>
			<stop  offset="0.6023" style="stop-color:#FFFFFF"/>
			<stop  offset="0.7614" style="stop-color:#FFFFFF;stop-opacity:0"/>
		</linearGradient>
		<path class="st6" d="M137.5,73.5c1.5,0.6,3.3,1,4.5,1.6c4.2,1.6,6.3,3.7,6.3,5.6c0,6.1-23.8,11.2-53.1,11.3
			c-29.3,0.1-53-4.8-52.9-10.9c0-2.4,4.1-5,10.6-6.9c1.8-0.6,3.5-1,5.7-1.6C43.7,75.5,34.1,79.9,34,84.8C34,93,61.4,99.6,95.2,99.5
			c33.8-0.1,61.3-6.9,61.4-15.2C156.6,80,149.3,76.2,137.5,73.5z"/>
	</g>
</g>
</svg>
