<?xml version="1.0" encoding="utf-8"?>
<!-- Generator: Adobe Illustrator 21.1.0, SVG Export Plug-In . SVG Version: 6.00 Build 0)  -->
<svg version="1.1" id="graphic" xmlns="http://www.w3.org/2000/svg" xmlns:xlink="http://www.w3.org/1999/xlink" x="0px" y="0px"
	 viewBox="0 0 60 44" style="enable-background:new 0 0 60 44;" xml:space="preserve">
<style type="text/css">
	.st00{fill:#FFFFFF;}
</style>
<g id="logomark">
	<g>
		<path class="st00" d="M16.6,17.4c-0.5,0.8-2.1,1-3.5,0.3C11.7,17,11,15.8,11.5,15c0.5-0.8,2.1-1,3.5-0.3
			C16.4,15.3,17.1,16.5,16.6,17.4z M31.1,43.5C32.9,30.6,26.4,23,22.4,19c-0.1-0.1-0.3-0.3-0.4-0.4c0,0,0,0,0,0
			c-0.1-0.1-0.2-0.2-0.3-0.3c-2.6-3.3-1.2-7.7-0.4-9.1c0-0.1,0.1-0.1,0.1-0.2c0,0-2.8,2.5-2.9,6.7c0,0,0.2,2.3-1.9,3.2
			C14,19.9,6,19.9,0,23.8C0,23.8,27.8,13.5,31.1,43.5z"/>
	</g>
	<g>
		<path class="st00" d="M32.8,2.4c0.9-1.5,2.5-2.3,3.6-1.8C37.6,1,37.8,2.6,37,4.1c-0.9,1.5-2.5,2.3-3.6,1.8
			C32.2,5.5,31.9,3.9,32.8,2.4z M54.1,1.8c-8.7,0.1-15.2,5-19.7,5.5c-2.7,0.4-4.2-1.8-4.2-1.8c-3.7-4.2-7.8-4.6-7.8-4.6
			c0.1,0,0.1,0.1,0.2,0.1c1.4,0.6,5.4,3.4,6.6,7.8c0.7,2.4,0.1,7.5,0.3,10.5c0.5,6.9,2.6,15.4,6.1,21.6C24.5,8.8,54.1,1.8,54.1,1.8z
			"/>
	</g>
	<g>
		<path class="st00" d="M46.2,16c1.1-0.8,2.4-1,3-0.3c0.6,0.6,0.2,1.8-0.8,2.6c-1.1,0.8-2.4,1-3,0.3C44.8,17.9,45.1,16.8,46.2,16z
			 M60.4,21c-5.7-2.2-12.3-0.7-14.7-1.2c-1.9-0.3-2.1-2.3-2.1-2.3c-0.9-3.6-3.6-5.1-3.6-5.1c0,0,0.1,0.1,0.1,0.1
			c0.9,1,2.8,4.4,1.3,7.7c0,0.1-0.1,0.2-0.2,0.3c0,0,0,0,0,0c-0.1,0.2-0.2,0.3-0.3,0.5c-2.7,4-6.7,11.6-2.8,22
			C35.3,17.3,60.4,21,60.4,21z"/>
	</g>
	<g>
		<path class="st00" d="M45,24.4c0.5,0.2,1.1,0.3,1.5,0.5c1.4,0.5,2.1,1.2,2.1,1.8c0,2-7.8,3.7-17.4,3.7c-9.6,0-17.4-1.6-17.4-3.6
			c0-0.8,1.4-1.6,3.5-2.3c0.6-0.2,1.2-0.3,1.9-0.5c-4.9,0.9-8.1,2.4-8.1,4c0,2.7,9,4.9,20.1,4.8c11.1,0,20.1-2.3,20.1-5
			C51.3,26.6,48.9,25.3,45,24.4z"/>
	</g>
</g>
</svg>
